<svg xmlns="http://www.w3.org/2000/svg" fill="none" viewBox="0 0 48 80"><path fill="#E0D6CD" d="M24 0A23.98 23.98 0 0 0 7.04 7.07 24.18 24.18 0 0 0 0 24.1v31.8c0 6.4 2.53 12.52 7.03 17.04a23.95 23.95 0 0 0 33.94 0A24.15 24.15 0 0 0 48 55.9V24.1c0-6.39-2.54-12.52-7.04-17.03A23.98 23.98 0 0 0 24 0Zm22.83 55.9c0 6.08-2.4 11.91-6.69 16.2a22.78 22.78 0 0 1-32.28 0 22.97 22.97 0 0 1-6.69-16.2V24.1c0-6.08 2.4-11.91 6.69-16.2a22.78 22.78 0 0 1 32.28 0 22.97 22.97 0 0 1 6.69 16.2v31.8Z"/><path fill="#E0D6CD" d="M27.37 31.2c-.2 0-.38 0-.58.02h-.09c8.42-.5 9.5-10.67-.17-11.4v-.03H13.15c-.41-.04-.82-.04-1.23 0h-.14v.02c-4.19.62-3.62 6.82 2.53 10.07v21.28h1.86V30.5c1.55.21 6.69.63 10.85 1.24.3.04.6.1.9.2 8.57 2.82 9.23 11.57 3.48 16.28a11.55 11.55 0 0 1-7.33 2.52h-2.51V33.51h-1.87v17.23h-1.56a.23.23 0 0 0-.22.15.24.24 0 0 0 .05.26c.05.04.1.07.17.07h1.56v11.57a1.9 1.9 0 0 1-1.22 1.77v.14H22.78v-.14a1.9 1.9 0 0 1-1.22-1.77V51.38s2.79.07 3.44.04c16.03-.7 19.9-19.1 2.37-20.22ZM14.3 29.3c-3.6-2.28-4.59-4.34-4.76-5.7-.32-2.49 1.14-3.25 2.65-3.36h.81c.44.03.88.1 1.3.23v8.83Zm9.8 1.62c-3.63-.33-6.8-.76-7.95-.95v-9.73h9c1.48-.02 2.92.5 4.05 1.47 2.77 2.5 2.27 6.74-1.52 8.6a6.79 6.79 0 0 1-3.58.62Z"/></svg>